<svg xmlns="http://www.w3.org/2000/svg" width="24.224" height="24.321" viewBox="0 0 18.224 17.321">
  <g id="cv_4_-_location" data-name="cv 4 - location" transform="translate(0)">
    <g id="Group_8" data-name="Group 8">
      <path id="Path_14" data-name="Path 14" d="M55.366,382.525l-8.176-7.45a.93.93,0,0,0-1.258,0l-8.177,7.45a.935.935,0,0,0,.629,1.626h1.306v7.465a.536.536,0,0,0,.537.536h4.481a.536.536,0,0,0,.537-.536v-4.532h2.634v4.532a.535.535,0,0,0,.536.536H52.9a.535.535,0,0,0,.536-.536v-7.465h1.306a.934.934,0,0,0,.629-1.626Z" transform="translate(-37.449 -374.829)" fill="#ac7e2b"/>
      <path id="Path_15" data-name="Path 15" d="M53.491,376.406a.535.535,0,0,0-.536-.536h-3.6l4.135,3.759Z" transform="translate(-37.113 -374.8)" fill="#ac7e2b"/>
    </g>
  </g>
</svg>
