<svg id="cv_4_-_phone" data-name="cv 4 - phone" xmlns="http://www.w3.org/2000/svg" width="18.956" height="18.955" viewBox="0 0 16.956 16.955">
  <g id="Group_6" data-name="Group 6">
    <path id="Path_7" data-name="Path 7" d="M43.726,309.112a1.492,1.492,0,0,0,0-2.108l-2.043-2.044a1.5,1.5,0,0,0-1.189-.434,1.469,1.469,0,0,0-1.078.607c-.051.073-.1.146-.151.221l4.11,4.109Z" transform="translate(-38.031 -302.133)" fill="#ac7e2b"/>
    <path id="Path_8" data-name="Path 8" d="M49.885,313.161a1.494,1.494,0,0,0-2.108,0l-.352.352,4.11,4.11c.074-.049.148-.1.221-.151a1.472,1.472,0,0,0,.607-1.078,1.5,1.5,0,0,0-.435-1.189Z" transform="translate(-37.801 -301.901)" fill="#ac7e2b"/>
    <path id="Path_9" data-name="Path 9" d="M46.285,314.484a1.484,1.484,0,0,1-1.054-.436l-2.174-2.175a1.5,1.5,0,0,1-.292-1.7L38.792,306.2a7.5,7.5,0,0,0,1.456,8.513l2.141,2.141a7.472,7.472,0,0,0,4.7,2.16c.194.014.389.022.582.022a7.5,7.5,0,0,0,3.226-.727l-3.974-3.974A1.489,1.489,0,0,1,46.285,314.484Z" transform="translate(-38.065 -302.085)" fill="#ac7e2b"/>
    <path id="Path_10" data-name="Path 10" d="M47.806,302.2a.5.5,0,0,0,0,.993,5.968,5.968,0,0,1,5.961,5.96.5.5,0,0,0,.993,0A6.962,6.962,0,0,0,47.806,302.2Z" transform="translate(-37.805 -302.198)" fill="#ac7e2b"/>
    <path id="Path_11" data-name="Path 11" d="M47.806,308.988h0a.5.5,0,0,0,.994,0,1,1,0,0,0-.994-.993.5.5,0,1,0,0,.993Z" transform="translate(-37.805 -302.035)" fill="#ac7e2b"/>
    <path id="Path_12" data-name="Path 12" d="M47.806,307.056a1.989,1.989,0,0,1,1.987,1.986.5.5,0,0,0,.993,0,2.983,2.983,0,0,0-2.981-2.98.5.5,0,0,0,0,.993Z" transform="translate(-37.805 -302.089)" fill="#ac7e2b"/>
    <path id="Path_13" data-name="Path 13" d="M47.806,304.13a.5.5,0,0,0,0,.993,3.98,3.98,0,0,1,3.975,3.974.5.5,0,0,0,.993,0A4.973,4.973,0,0,0,47.806,304.13Z" transform="translate(-37.805 -302.144)" fill="#ac7e2b"/>
  </g>
</svg>
